<?xml version="1.0" encoding="utf-8"?>
<!-- Generator: Adobe Illustrator 16.0.0, SVG Export Plug-In . SVG Version: 6.00 Build 0)  -->
<!DOCTYPE svg PUBLIC "-//W3C//DTD SVG 1.1//EN" "http://www.w3.org/Graphics/SVG/1.1/DTD/svg11.dtd">
<svg version="1.1" id="Layer_1" xmlns="http://www.w3.org/2000/svg" xmlns:xlink="http://www.w3.org/1999/xlink" x="0px" y="0px"
	 width="433px" height="74px" viewBox="0 0 433 74" enable-background="new 0 0 433 74" xml:space="preserve">
<g>
	<path fill="#FFFFFF" d="M22.492,32.613c-0.747-1.307-2.366-2.303-4.296-2.303c-4.669,0-7.907,3.112-8.529,7.657
		c-0.623,4.545,1.743,7.658,6.412,7.658c2.055,0,3.673-1.06,4.918-2.305l5.23,6.476c-3.299,2.989-7.782,4.047-11.331,4.047
		c-9.338,0-15.937-6.226-14.568-15.876c1.37-9.65,9.712-15.875,19.051-15.875c3.549,0,7.72,1.058,10.21,4.046L22.492,32.613z"/>
	<path fill="#FFFFFF" d="M49.885,22.092c9.339,0,15.938,6.226,14.569,15.875c-1.37,9.649-9.713,15.875-19.051,15.875
		c-9.339,0-15.938-6.226-14.568-15.875S40.547,22.092,49.885,22.092 M46.586,45.626c4.669,0,7.907-3.113,8.529-7.658
		c0.622-4.545-1.743-7.657-6.412-7.657c-4.67,0-7.907,3.112-8.529,7.657C39.551,42.513,41.917,45.626,46.586,45.626"/>
	<path fill="#FFFFFF" d="M97.638,53.097h-8.965l0.56-4.109h-0.124c-1.557,2.365-4.981,4.855-9.526,4.855
		c-9.463,0-10.334-6.226-9.152-14.318l2.304-16.685h9.339l-2.055,14.817c-0.498,3.487-1.058,7.97,3.736,7.97
		c4.856,0,6.101-3.798,6.661-7.721l2.117-15.066h9.338L97.638,53.097z"/>
	<path fill="#FFFFFF" d="M109.156,22.839h9.338l-0.684,4.856h0.124c2.553-3.673,5.416-5.603,9.525-5.603
		c1.059,0,2.242,0.062,3.051,0.311l-1.183,8.53c-1.245-0.374-2.552-0.623-3.922-0.623c-7.098,0-8.529,4.108-9.339,10.147
		l-1.805,12.639h-9.339L109.156,22.839z"/>
	<path fill="#FFFFFF" d="M151.057,31.742c-1.121-1.681-2.801-2.553-5.043-2.553c-1.556,0-3.549,0.685-3.797,2.491
		c-0.623,4.482,15.688,0.685,14.069,12.202c-1.12,7.721-8.902,9.963-15.377,9.963c-4.233,0-8.716-1.06-11.269-4.11l6.538-6.288
		c1.431,2.117,3.299,3.3,6.101,3.3c2.116,0,4.358-0.56,4.545-2.179c0.684-4.856-15.627-0.747-14.008-12.265
		c0.996-7.097,7.782-10.21,14.132-10.21c3.984,0,8.28,0.996,10.646,3.984L151.057,31.742z"/>
	<path fill="#FFFFFF" d="M189.844,47.866c-3.549,3.799-8.779,5.978-13.634,5.978c-9.339,0-15.938-6.226-14.569-15.876
		c1.37-9.649,9.712-15.875,19.051-15.875c8.716,0,13.323,6.226,11.953,15.875l-0.374,2.927h-21.665
		c0.25,3.548,2.553,5.853,6.164,5.853c3.051,0,5.354-1.558,7.221-3.675L189.844,47.866z M183.805,34.543
		c0.498-3.113-1.556-5.727-4.919-5.727c-4.108,0-6.786,2.801-7.408,5.727H183.805z"/>
	<path fill="#FFFFFF" d="M198.374,29.563l12.95-9.837c1.37-0.996,2.988-2.179,3.175-3.424c0.249-1.743-1.37-2.428-3.3-2.428
		c-2.366,0-4.233,1.495-4.607,3.362l-6.288-0.373c1.245-5.915,5.977-8.592,11.953-8.592c5.791,0,9.712,2.677,9.027,7.471
		c-0.559,4.296-2.115,5.416-4.793,7.284l-9.65,6.724l-0.062,0.125h12.513l-0.684,5.229h-20.981L198.374,29.563z"/>
	<path fill="#FFFFFF" d="M225.768,22.839h8.965l-0.561,4.109h0.125c1.557-2.366,4.98-4.856,9.525-4.856
		c4.232,0,7.471,1.743,8.592,5.416c2.676-3.86,5.852-5.416,10.334-5.416c8.219,0,9.9,5.79,8.84,13.136l-2.49,17.868h-9.338
		l2.49-17.619c0.373-2.801-0.373-5.167-3.424-5.167c-4.295,0-6.039,3.05-6.6,6.786l-2.24,16h-9.34l2.24-16
		c0.312-2.241,1.061-6.786-3.236-6.786c-4.855,0-6.102,3.797-6.66,7.72l-2.117,15.066h-9.34L225.768,22.839z"/>
	<path fill="#FFFFFF" d="M295.934,49.299h-0.125c-2.553,3.237-6.475,4.545-10.271,4.545c-5.666,0-10.273-3.238-9.465-9.339
		c1.494-10.459,14.195-10.646,21.979-10.646c0.498-3.3-1.93-5.417-5.168-5.417c-3.051,0-5.789,1.37-8.094,3.612l-4.295-5.105
		c3.859-3.238,9.09-4.857,14.008-4.857c10.895,0,13.012,5.541,11.643,15.627l-2.18,15.378h-8.592L295.934,49.299z M294.938,39.836
		c-2.865,0-9.275,0.249-9.838,4.358c-0.311,2.24,1.93,3.299,3.986,3.299c3.672,0,7.346-1.931,7.844-5.666l0.311-1.991H294.938z"/>
	<path fill="#FFFFFF" d="M318.617,61.563c-1.059,7.721-4.482,12.7-13.014,12.7c-1.432,0-2.986-0.062-4.295-0.498l1.682-8.28
		c0.684,0.374,1.557,0.562,2.365,0.562c3.238,0,3.799-3.798,4.17-6.103l5.336-37.104h9.338L318.617,61.563z M321.646,7.897
		c2.988,0,5.105,2.428,4.668,5.416c-0.436,2.989-3.174,5.417-6.162,5.417s-5.105-2.428-4.67-5.417
		C315.918,10.326,318.658,7.897,321.646,7.897"/>
	<path fill="#FFFFFF" d="M347.42,22.092c9.34,0,15.938,6.226,14.57,15.875c-1.371,9.649-9.715,15.875-19.053,15.875
		S327,47.617,328.371,37.968C329.74,28.318,338.082,22.092,347.42,22.092 M344.121,45.626c4.67,0,7.906-3.113,8.529-7.658
		c0.621-4.545-1.742-7.657-6.414-7.657c-4.668,0-7.904,3.112-8.527,7.657C337.086,42.513,339.453,45.626,344.121,45.626"/>
	<path fill="#FFFFFF" d="M370.27,22.839h9.34l-0.686,4.856h0.125c2.553-3.673,5.416-5.603,9.525-5.603
		c1.059,0,2.24,0.062,3.051,0.311l-1.184,8.53c-1.246-0.374-2.553-0.623-3.922-0.623c-7.098,0-8.529,4.108-9.338,10.147
		l-1.807,12.639h-9.338L370.27,22.839z"/>
	<path fill="#FFFFFF" d="M417.594,2.863l2.955,9.097h9.566c2.613,0,3.699,3.344,1.586,4.88l-7.74,5.623l2.957,9.097
		c0.807,2.485-2.037,4.552-4.152,3.016l-7.738-5.622l-7.738,5.622c-2.113,1.536-4.959-0.531-4.15-3.016l2.955-9.097l-7.738-5.623
		c-2.113-1.536-1.027-4.88,1.584-4.88h9.566l2.957-9.097C413.27,0.378,416.787,0.378,417.594,2.863"/>
	<path fill="none" stroke="#B8D1CB" stroke-miterlimit="10" d="M417.594,2.863l2.955,9.097h9.566c2.613,0,3.699,3.344,1.586,4.88
		l-7.74,5.623l2.957,9.097c0.807,2.485-2.037,4.552-4.152,3.016l-7.738-5.622l-7.738,5.622c-2.113,1.536-4.959-0.531-4.15-3.016
		l2.955-9.097l-7.738-5.623c-2.113-1.536-1.027-4.88,1.584-4.88h9.566l2.957-9.097C413.27,0.378,416.787,0.378,417.594,2.863z"/>
</g>
</svg>
